<svg width="24" height="24" viewBox="0 0 24 24" fill="none" xmlns="http://www.w3.org/2000/svg">
<path d="M7 18.0001C5.9 18.0001 5.01 18.9001 5.01 20.0001C5.01 21.1001 5.9 22.0001 7 22.0001C8.1 22.0001 9 21.1001 9 20.0001C9 18.9001 8.1 18.0001 7 18.0001ZM1 2.00012V4.00012H3L6.6 11.5901L5.25 14.0401C5.09 14.3201 5 14.6501 5 15.0001C5 16.1001 5.9 17.0001 7 17.0001H19V15.0001H7.42C7.28 15.0001 7.17 14.8901 7.17 14.7501L7.2 14.6301L8.1 13.0001H15.55C16.3 13.0001 16.96 12.5901 17.3 11.9701L20.88 5.48012C20.96 5.34012 21 5.17012 21 5.00012C21 4.45012 20.55 4.00012 20 4.00012H5.21L4.27 2.00012H1ZM17 18.0001C15.9 18.0001 15.01 18.9001 15.01 20.0001C15.01 21.1001 15.9 22.0001 17 22.0001C18.1 22.0001 19 21.1001 19 20.0001C19 18.9001 18.1 18.0001 17 18.0001Z" fill="white"/>
</svg>
